<?xml version="1.0" encoding="UTF-8"?>
<svg version="1.1" xmlns="http://www.w3.org/2000/svg" width="500" height="500">
<path d="M0 0 C0.70640625 0.05220703 1.4128125 0.10441406 2.140625 0.15820312 C3.88579987 0.28791207 5.63045725 0.42454954 7.375 0.5625 C7.375 1.8825 7.375 3.2025 7.375 4.5625 C3.085 4.5625 -1.205 4.5625 -5.625 4.5625 C-5.295 6.5425 -4.965 8.5225 -4.625 10.5625 C-4.295 8.9125 -3.965 7.2625 -3.625 5.5625 C-2.965 5.8925 -2.305 6.2225 -1.625 6.5625 C-1.955 7.8825 -2.285 9.2025 -2.625 10.5625 C1.83 11.5525 1.83 11.5525 6.375 12.5625 C6.705 13.8825 7.035 15.2025 7.375 16.5625 C4.405 16.8925 1.435 17.2225 -1.625 17.5625 C-1.295 19.8725 -0.965 22.1825 -0.625 24.5625 C2.015 24.8925 4.655 25.2225 7.375 25.5625 C7.375 26.8825 7.375 28.2025 7.375 29.5625 C4.375 30.5625 4.375 30.5625 -9.625 29.5625 C-9.625 19.9925 -9.625 10.4225 -9.625 0.5625 C-6.5270403 -0.98647985 -3.36283448 -0.26989539 0 0 Z M-4.625 16.5625 C-6.04077477 17.74674326 -6.04077477 17.74674326 -5.6875 21.125 C-5.666875 22.259375 -5.64625 23.39375 -5.625 24.5625 C-3.27526182 22.66494856 -3.27526182 22.66494856 -3.5 19.4375 C-3.561875 18.014375 -3.561875 18.014375 -3.625 16.5625 C-3.955 16.5625 -4.285 16.5625 -4.625 16.5625 Z " fill="#EF3030" transform="translate(49.625,237.4375)"/>
<path d="M0 0 C5.625 5.625 5.625 5.625 7.45703125 8.33203125 C7.98647339 9.1051062 7.98647339 9.1051062 8.52661133 9.89379883 C8.95095459 10.52697021 9.37529785 11.1601416 9.8125 11.8125 C11.194375 13.854375 12.57625 15.89625 14 18 C14.33 12.72 14.66 7.44 15 2 C16.32 1.67 17.64 1.34 19 1 C19 10.9 19 20.8 19 31 C13.375 25.375 13.375 25.375 11.54296875 22.66796875 C11.19000732 22.15258545 10.8370459 21.63720215 10.47338867 21.10620117 C10.04904541 20.47302979 9.62470215 19.8398584 9.1875 19.1875 C7.805625 17.145625 6.42375 15.10375 5 13 C4.67 18.28 4.34 23.56 4 29 C2.68 29 1.36 29 0 29 C0 19.43 0 9.86 0 0 Z " fill="#E8E9E9" transform="translate(193,237)"/>
<path d="M0 0 C3 1.8125 3 1.8125 5 4 C5 4.99 5 5.98 5 7 C2.03824877 6.38722388 0.61941217 5.74627478 -2 4 C-5.63939932 4.31730524 -5.63939932 4.31730524 -9 5 C-8.91955301 7.45453282 -8.91955301 7.45453282 -8 10 C-5.60612531 11.29933485 -5.60612531 11.29933485 -2.6875 12 C0.89427601 13.16442653 2.86243797 13.88119643 5.75 16.375 C7.36666056 19.76998718 7.15651582 21.45335148 6 25 C4.08268479 27.52737004 3.08494591 27.9716847 0 29 C-5.17796152 29.39078955 -8.67279959 28.98782885 -13 26 C-13.875 23.3125 -13.875 23.3125 -14 21 C-12.68 21 -11.36 21 -10 21 C-9.34 21.99 -8.68 22.98 -8 24 C-4.86522663 25.10140686 -3.3632425 25.12108083 -0.1875 24.0625 C0.8953125 23.5365625 0.8953125 23.5365625 2 23 C2.0077693 20.56475038 2.0077693 20.56475038 1 18 C-1.91422937 16.40277487 -1.91422937 16.40277487 -5.4375 15.375 C-11.80533458 13.29199813 -11.80533458 13.29199813 -14 10 C-13.91956698 6.21964825 -13.43199957 4.49745405 -10.9375 1.625 C-7.14833429 -0.47113422 -4.24047582 -0.86348399 0 0 Z " fill="#EEEEEE" transform="translate(405,238)"/>
<path d="M0 0 C1.48831242 0.00667405 2.97660807 0.01863442 4.46484375 0.03515625 C5.22345703 0.03966797 5.98207031 0.04417969 6.76367188 0.04882812 C8.64326246 0.06064945 10.52281274 0.07858547 12.40234375 0.09765625 C12.40234375 1.41765625 12.40234375 2.73765625 12.40234375 4.09765625 C8.11234375 4.09765625 3.82234375 4.09765625 -0.59765625 4.09765625 C-0.59765625 7.06765625 -0.59765625 10.03765625 -0.59765625 13.09765625 C3.69234375 13.09765625 7.98234375 13.09765625 12.40234375 13.09765625 C12.40234375 14.08765625 12.40234375 15.07765625 12.40234375 16.09765625 C8.11234375 16.09765625 3.82234375 16.09765625 -0.59765625 16.09765625 C-0.59765625 19.06765625 -0.59765625 22.03765625 -0.59765625 25.09765625 C3.69234375 25.09765625 7.98234375 25.09765625 12.40234375 25.09765625 C12.40234375 26.08765625 12.40234375 27.07765625 12.40234375 28.09765625 C6.79234375 28.09765625 1.18234375 28.09765625 -4.59765625 28.09765625 C-4.62447784 23.61845028 -4.64440802 19.13940274 -4.66015625 14.66015625 C-4.66853516 13.38076172 -4.67691406 12.10136719 -4.68554688 10.78320312 C-4.68876953 9.56826172 -4.69199219 8.35332031 -4.6953125 7.1015625 C-4.70054932 5.97564697 -4.70578613 4.84973145 -4.71118164 3.68969727 C-4.53469681 -0.33985 -4.1876456 0.11367116 0 0 Z " fill="#EBEBEB" transform="translate(147.59765625,237.90234375)"/>
<path d="M0 0 C5.61 0 11.22 0 17 0 C17 1.32 17 2.64 17 4 C12.38 4 7.76 4 3 4 C3.33 6.97 3.66 9.94 4 13 C7.96 13 11.92 13 16 13 C16 13.99 16 14.98 16 16 C12.04 16.33 8.08 16.66 4 17 C4 19.31 4 21.62 4 24 C8.29 24.33 12.58 24.66 17 25 C17 25.99 17 26.98 17 28 C11.39 28 5.78 28 0 28 C0 18.76 0 9.52 0 0 Z " fill="#EEEEEE" transform="translate(290,238)"/>
<path d="M0 0 C2.33562724 2.89046986 3.85433049 5.66375442 5.26171875 9.09765625 C5.65810547 10.06380859 6.05449219 11.02996094 6.46289062 12.02539062 C6.86701172 13.02763672 7.27113281 14.02988281 7.6875 15.0625 C8.10322266 16.06861328 8.51894531 17.07472656 8.94726562 18.11132812 C12 25.61534021 12 25.61534021 12 29 C10.125 28.8125 10.125 28.8125 8 28 C7.34 26.35 6.68 24.7 6 23 C2.04 22.67 -1.92 22.34 -6 22 C-6.33 23.65 -6.66 25.3 -7 27 C-7.33 27.66 -7.66 28.32 -8 29 C-9.32 28.67 -10.64 28.34 -12 28 C-10.45497409 24.17178179 -8.9066517 20.34491582 -7.35522461 16.51928711 C-6.82761686 15.21692306 -6.30092085 13.91418927 -5.77514648 12.61108398 C-5.02045088 10.74106066 -4.26223196 8.87246046 -3.50390625 7.00390625 C-3.04830322 5.87799072 -2.5927002 4.7520752 -2.12329102 3.59204102 C-1 1 -1 1 0 0 Z M0 8 C-0.67119549 9.4562545 -1.33681807 10.91507867 -2 12.375 C-2.37125 13.18710938 -2.7425 13.99921875 -3.125 14.8359375 C-4.12495013 16.91998433 -4.12495013 16.91998433 -4 19 C-1.36 19 1.28 19 4 19 C3.44894091 15.0507432 2.61064629 11.65079826 1 8 C0.67 8 0.34 8 0 8 Z " fill="#F3F3F3" transform="translate(349,237)"/>
<path d="M0 0 C5.28 0 10.56 0 16 0 C16 1.32 16 2.64 16 4 C11.71 4 7.42 4 3 4 C3 6.97 3 9.94 3 13 C7.29 13 11.58 13 16 13 C16 13.99 16 14.98 16 16 C11.71 16 7.42 16 3 16 C3 18.97 3 21.94 3 25 C7.62 25 12.24 25 17 25 C17 25.99 17 26.98 17 28 C11.39 28 5.78 28 0 28 C0 18.76 0 9.52 0 0 Z " fill="#F2F2F2" transform="translate(443,238)"/>
<path d="M0 0 C1.86621094 0.24780273 1.86621094 0.24780273 4 1 C5.18847656 2.76586914 5.18847656 2.76586914 6.140625 5.03515625 C6.66269531 6.24848633 6.66269531 6.24848633 7.1953125 7.48632812 C7.54335937 8.33646484 7.89140625 9.18660156 8.25 10.0625 C8.79527344 11.34350586 8.79527344 11.34350586 9.3515625 12.65039062 C10.24795761 14.76163701 11.12996502 16.87778585 12 19 C15.3074418 15.10369615 16.9012643 10.5916227 18.66210938 5.86914062 C19.40234375 4.01953125 19.40234375 4.01953125 21 1 C23.19140625 0.07421875 23.19140625 0.07421875 25 0 C24.35990983 3.96473763 23.1301723 7.2944414 21.49609375 10.95703125 C21.00302734 12.06884766 20.50996094 13.18066406 20.00195312 14.32617188 C19.48568359 15.47666016 18.96941406 16.62714844 18.4375 17.8125 C17.91736328 18.98232422 17.39722656 20.15214844 16.86132812 21.35742188 C15.57872888 24.24032843 14.29147717 27.12106231 13 30 C9.21402799 25.30550466 7.17998889 19.9391254 4.8125 14.4375 C4.34908203 13.38369141 3.88566406 12.32988281 3.40820312 11.24414062 C2.97056641 10.23416016 2.53292969 9.22417969 2.08203125 8.18359375 C1.68218018 7.26118896 1.2823291 6.33878418 0.87036133 5.38842773 C0 3 0 3 0 0 Z " fill="#F0F0F0" transform="translate(88,238)"/>
<path d="M0 0 C5.28 0 10.56 0 16 0 C16 1.32 16 2.64 16 4 C14.02 4 12.04 4 10 4 C10 11.92 10 19.84 10 28 C8.68 28 7.36 28 6 28 C6 20.08 6 12.16 6 4 C4.02 4 2.04 4 0 4 C0 2.68 0 1.36 0 0 Z " fill="#ECECEC" transform="translate(243,238)"/>
<path d="M0 0 C0.66 0.33 1.32 0.66 2 1 C1.67 2.32 1.34 3.64 1 5 C5.455 5.99 5.455 5.99 10 7 C10.33 8.32 10.66 9.64 11 11 C6.545 11.495 6.545 11.495 2 12 C2.33 14.31 2.66 16.62 3 19 C5.64 19.33 8.28 19.66 11 20 C11 21.32 11 22.64 11 24 C7.6888987 25.10370043 5.75251051 24.92673641 2.3125 24.5625 C1.31863281 24.46066406 0.32476562 24.35882813 -0.69921875 24.25390625 C-1.45847656 24.17011719 -2.21773437 24.08632813 -3 24 C-3 23.67 -3 23.34 -3 23 C0.465 22.505 0.465 22.505 4 22 C3.360625 21.835 2.72125 21.67 2.0625 21.5 C0 20 0 20 -0.6875 16.0625 C-0.73261719 15.37285156 -0.77773438 14.68320312 -0.82421875 13.97265625 C-0.94239909 11.78817404 -0.94239909 11.78817404 -2 9 C-1.66015625 6.73828125 -1.66015625 6.73828125 -1.0625 4.3125 C-0.86785156 3.50425781 -0.67320313 2.69601563 -0.47265625 1.86328125 C-0.31667969 1.24839844 -0.16070312 0.63351563 0 0 Z " fill="#C12626" transform="translate(46,243)"/>
<path d="M0 0 C0.70640625 0.05220703 1.4128125 0.10441406 2.140625 0.15820312 C3.88579987 0.28791207 5.63045725 0.42454954 7.375 0.5625 C7.375 1.8825 7.375 3.2025 7.375 4.5625 C2.095 4.5625 -3.185 4.5625 -8.625 4.5625 C-8.625 12.4825 -8.625 20.4025 -8.625 28.5625 C-8.955 28.5625 -9.285 28.5625 -9.625 28.5625 C-9.625 19.3225 -9.625 10.0825 -9.625 0.5625 C-6.5270403 -0.98647985 -3.36283448 -0.26989539 0 0 Z " fill="#CB2929" transform="translate(49.625,237.4375)"/>
<path d="M0 0 C0.99 0 1.98 0 3 0 C3 9.9 3 19.8 3 30 C-2.625 24.375 -2.625 24.375 -3 20 C-2.34 20 -1.68 20 -1 20 C-0.67 13.4 -0.34 6.8 0 0 Z " fill="#F1F1F1" transform="translate(209,238)"/>
<path d="M0 0 C3.40198926 4.04998722 6 8.63626649 6 14 C5.34 14 4.68 14 4 14 C3.67 14.66 3.34 15.32 3 16 C2.01 14.02 1.02 12.04 0 10 C-0.99 12.31 -1.98 14.62 -3 17 C-3.99 17 -4.98 17 -6 17 C-6.33 16.34 -6.66 15.68 -7 15 C-6.11506725 12.58255127 -5.17630431 10.28074049 -4.125 7.9375 C-3.84269531 7.28716797 -3.56039063 6.63683594 -3.26953125 5.96679688 C-1.15775742 1.15775742 -1.15775742 1.15775742 0 0 Z " fill="#ECECEC" transform="translate(349,237)"/>
<path d="M0 0 C0.66 0 1.32 0 2 0 C2.33 2.31 2.66 4.62 3 7 C7.29 7.33 11.58 7.66 16 8 C16 8.99 16 9.98 16 11 C10.39 11 4.78 11 -1 11 C-0.67 7.37 -0.34 3.74 0 0 Z " fill="#F5F5F5" transform="translate(291,255)"/>
<path d="M0 0 C3.96 0 7.92 0 12 0 C12 0.99 12 1.98 12 3 C7.71 3 3.42 3 -1 3 C-0.67 2.01 -0.34 1.02 0 0 Z " fill="#F1F1F1" transform="translate(148,251)"/>
<path d="M0 0 C1.43655854 -0.08131463 2.8744483 -0.13933559 4.3125 -0.1875 C5.51326172 -0.23970703 5.51326172 -0.23970703 6.73828125 -0.29296875 C9 0 9 0 10.79296875 1.32421875 C12 3 12 3 12 6 C9.03824877 5.38722388 7.61941217 4.74627478 5 3 C3.0103005 2.60986284 1.00980131 2.26797351 -1 2 C-0.67 1.34 -0.34 0.68 0 0 Z " fill="#F1F1F1" transform="translate(398,239)"/>
<path d="M0 0 C1.32 0 2.64 0 4 0 C4.66 0.99 5.32 1.98 6 3 C8.05003955 4.19232613 8.05003955 4.19232613 10 5 C8.02 5.66 6.04 6.32 4 7 C2 5.1875 2 5.1875 0 3 C0 2.01 0 1.02 0 0 Z " fill="#E8E8E8" transform="translate(391,259)"/>
<path d="M0 0 C0.66 0.33 1.32 0.66 2 1 C1.67 2.32 1.34 3.64 1 5 C5.455 5.99 5.455 5.99 10 7 C10 7.33 10 7.66 10 8 C6.04 8 2.08 8 -2 8 C-1.34 5.36 -0.68 2.72 0 0 Z " fill="#991D16" transform="translate(46,243)"/>
<path d="M0 0 C0.99 0 1.98 0 3 0 C3 2.31 3 4.62 3 7 C2.34 7 1.68 7 1 7 C0.67 7.66 0.34 8.32 0 9 C0 6.03 0 3.06 0 0 Z " fill="#EA3737" transform="translate(41,242)"/>
</svg>
